<svg width="463" height="154" viewBox="0 0 463 154" fill="none" xmlns="http://www.w3.org/2000/svg">
<rect x="15.0897" y="14.0897" width="446.795" height="139.41" fill="#FFECC7" stroke="black"/>
<rect x="8.08978" y="8.08978" width="446.795" height="139.41" fill="#FECD6F" stroke="black"/>
<rect x="0.5" y="0.5" width="446.795" height="139.41" fill="#FCA701" stroke="black"/>
<path d="M244.112 101.102H268.838V107H235.284V101.688L258.604 70.7109H235.635V64.7344H267.667V69.8516L244.112 101.102ZM293.917 107.781C288.187 107.781 283.526 105.906 279.932 102.156C276.338 98.3802 274.542 93.3411 274.542 87.0391V85.7109C274.542 81.5182 275.336 77.7812 276.924 74.5C278.539 71.1927 280.778 68.6146 283.643 66.7656C286.534 64.8906 289.659 63.9531 293.018 63.9531C298.513 63.9531 302.784 65.763 305.831 69.3828C308.877 73.0026 310.401 78.1849 310.401 84.9297V87.9375H281.768C281.872 92.1042 283.083 95.4766 285.401 98.0547C287.745 100.607 290.713 101.883 294.307 101.883C296.859 101.883 299.021 101.362 300.792 100.32C302.562 99.2786 304.112 97.8984 305.44 96.1797L309.854 99.6172C306.312 105.06 301 107.781 293.917 107.781ZM293.018 69.8906C290.101 69.8906 287.653 70.9583 285.674 73.0938C283.695 75.2031 282.471 78.1719 282.002 82H303.174V81.4531C302.966 77.7812 301.976 74.9427 300.206 72.9375C298.435 70.9062 296.039 69.8906 293.018 69.8906ZM326.651 107H319.424V64.7344H326.651V107ZM318.838 53.5234C318.838 52.3516 319.19 51.362 319.893 50.5547C320.622 49.7474 321.69 49.3438 323.096 49.3438C324.502 49.3438 325.57 49.7474 326.299 50.5547C327.028 51.362 327.393 52.3516 327.393 53.5234C327.393 54.6953 327.028 55.6719 326.299 56.4531C325.57 57.2344 324.502 57.625 323.096 57.625C321.69 57.625 320.622 57.2344 319.893 56.4531C319.19 55.6719 318.838 54.6953 318.838 53.5234ZM358.682 71.2188C357.588 71.0365 356.403 70.9453 355.127 70.9453C350.388 70.9453 347.172 72.9635 345.479 77V107H338.252V64.7344H345.284L345.401 69.6172C347.771 65.8411 351.13 63.9531 355.479 63.9531C356.885 63.9531 357.953 64.1354 358.682 64.5V71.2188ZM389.893 107C389.476 106.167 389.138 104.682 388.877 102.547C385.518 106.036 381.508 107.781 376.846 107.781C372.68 107.781 369.255 106.609 366.573 104.266C363.917 101.896 362.588 98.901 362.588 95.2812C362.588 90.8802 364.255 87.4688 367.588 85.0469C370.948 82.599 375.661 81.375 381.729 81.375H388.76V78.0547C388.76 75.5286 388.005 73.5234 386.495 72.0391C384.984 70.5286 382.758 69.7734 379.815 69.7734C377.237 69.7734 375.075 70.4245 373.331 71.7266C371.586 73.0286 370.713 74.6042 370.713 76.4531H363.448C363.448 74.3438 364.19 72.3125 365.674 70.3594C367.185 68.3802 369.216 66.8177 371.768 65.6719C374.346 64.526 377.172 63.9531 380.245 63.9531C385.114 63.9531 388.93 65.1771 391.69 67.625C394.45 70.0469 395.883 73.3932 395.987 77.6641V97.1172C395.987 100.997 396.482 104.083 397.471 106.375V107H389.893ZM377.901 101.492C380.167 101.492 382.315 100.906 384.346 99.7344C386.377 98.5625 387.849 97.0391 388.76 95.1641V86.4922H383.096C374.242 86.4922 369.815 89.0833 369.815 94.2656C369.815 96.5312 370.57 98.3021 372.081 99.5781C373.591 100.854 375.531 101.492 377.901 101.492Z" fill="white"/>
<path d="M244.112 101.102L243.313 100.5L242.106 102.102H244.112V101.102ZM268.838 101.102H269.838V100.102H268.838V101.102ZM268.838 107V108H269.838V107H268.838ZM235.284 107H234.284V108H235.284V107ZM235.284 101.688L234.485 101.086L234.284 101.353V101.688H235.284ZM258.604 70.7109L259.403 71.3124L260.609 69.7109H258.604V70.7109ZM235.635 70.7109H234.635V71.7109H235.635V70.7109ZM235.635 64.7344V63.7344H234.635V64.7344H235.635ZM267.667 64.7344H268.667V63.7344H267.667V64.7344ZM267.667 69.8516L268.465 70.4535L268.667 70.1862V69.8516H267.667ZM244.112 102.102H268.838V100.102H244.112V102.102ZM267.838 101.102V107H269.838V101.102H267.838ZM268.838 106H235.284V108H268.838V106ZM236.284 107V101.688H234.284V107H236.284ZM236.083 102.289L259.403 71.3124L257.805 70.1095L234.485 101.086L236.083 102.289ZM258.604 69.7109H235.635V71.7109H258.604V69.7109ZM236.635 70.7109V64.7344H234.635V70.7109H236.635ZM235.635 65.7344H267.667V63.7344H235.635V65.7344ZM266.667 64.7344V69.8516H268.667V64.7344H266.667ZM266.868 69.2496L243.313 100.5L244.91 101.703L268.465 70.4535L266.868 69.2496ZM279.932 102.156L279.208 102.846L279.21 102.848L279.932 102.156ZM276.924 74.5L276.026 74.0613L276.024 74.0643L276.924 74.5ZM283.643 66.7656L284.185 67.6058L284.187 67.6046L283.643 66.7656ZM305.831 69.3828L305.066 70.0268L305.831 69.3828ZM310.401 87.9375V88.9375H311.401V87.9375H310.401ZM281.768 87.9375V86.9375H280.743L280.768 87.9625L281.768 87.9375ZM285.401 98.0547L284.657 98.7233L284.664 98.7311L285.401 98.0547ZM305.44 96.1797L306.054 95.3907L305.262 94.774L304.649 95.5682L305.44 96.1797ZM309.854 99.6172L310.692 100.163L311.193 99.3926L310.468 98.8282L309.854 99.6172ZM285.674 73.0938L286.404 73.778L286.408 73.7735L285.674 73.0938ZM282.002 82L281.01 81.8785L280.873 83H282.002V82ZM303.174 82V83H304.174V82H303.174ZM303.174 81.4531H304.174V81.4248L304.173 81.3965L303.174 81.4531ZM300.206 72.9375L299.452 73.5946L299.456 73.5994L300.206 72.9375ZM293.917 106.781C288.429 106.781 284.039 104.996 280.654 101.464L279.21 102.848C283.013 106.816 287.946 108.781 293.917 108.781V106.781ZM280.657 101.467C277.275 97.9142 275.542 93.1413 275.542 87.0391H273.542C273.542 93.541 275.401 98.8462 279.208 102.846L280.657 101.467ZM275.542 87.0391V85.7109H273.542V87.0391H275.542ZM275.542 85.7109C275.542 81.6465 276.311 78.0621 277.824 74.9357L276.024 74.0643C274.361 77.5004 273.542 81.39 273.542 85.7109H275.542ZM277.823 74.9387C279.364 71.7817 281.486 69.3481 284.185 67.6058L283.101 65.9254C280.071 67.8811 277.714 70.6037 276.026 74.0613L277.823 74.9387ZM284.187 67.6046C286.92 65.8318 289.857 64.9531 293.018 64.9531V62.9531C289.46 62.9531 286.147 63.9494 283.099 65.9267L284.187 67.6046ZM293.018 64.9531C298.271 64.9531 302.24 66.6703 305.066 70.0268L306.596 68.7388C303.327 64.8557 298.755 62.9531 293.018 62.9531V64.9531ZM305.066 70.0268C307.907 73.403 309.401 78.3219 309.401 84.9297H311.401C311.401 78.0479 309.848 72.6022 306.596 68.7388L305.066 70.0268ZM309.401 84.9297V87.9375H311.401V84.9297H309.401ZM310.401 86.9375H281.768V88.9375H310.401V86.9375ZM280.768 87.9625C280.877 92.317 282.15 95.9338 284.657 98.7232L286.145 97.3861C284.017 95.0194 282.867 91.8914 282.768 87.9125L280.768 87.9625ZM284.664 98.7311C287.205 101.498 290.445 102.883 294.307 102.883V100.883C290.982 100.883 288.284 99.7156 286.137 97.3783L284.664 98.7311ZM294.307 102.883C296.995 102.883 299.341 102.334 301.299 101.182L300.284 99.4584C298.7 100.39 296.724 100.883 294.307 100.883V102.883ZM301.299 101.182C303.185 100.072 304.83 98.6049 306.231 96.7911L304.649 95.5682C303.394 97.192 301.939 98.485 300.284 99.4584L301.299 101.182ZM304.826 96.9687L309.24 100.406L310.468 98.8282L306.054 95.3907L304.826 96.9687ZM309.016 99.0718C305.678 104.202 300.698 106.781 293.917 106.781V108.781C301.302 108.781 306.947 105.918 310.692 100.163L309.016 99.0718ZM293.018 68.8906C289.824 68.8906 287.11 70.074 284.941 72.414L286.408 73.7735C288.197 71.8427 290.379 70.8906 293.018 70.8906V68.8906ZM284.945 72.4095C282.779 74.718 281.496 77.9091 281.01 81.8785L282.995 82.1215C283.446 78.4346 284.611 75.6882 286.404 73.778L284.945 72.4095ZM282.002 83H303.174V81H282.002V83ZM304.174 82V81.4531H302.174V82H304.174ZM304.173 81.3965C303.956 77.5836 302.921 74.5021 300.955 72.2756L299.456 73.5994C301.031 75.3833 301.976 77.9789 302.176 81.5098L304.173 81.3965ZM300.959 72.2804C298.974 70.0035 296.289 68.8906 293.018 68.8906V70.8906C295.789 70.8906 297.895 71.809 299.452 73.5946L300.959 72.2804ZM326.651 107V108H327.651V107H326.651ZM319.424 107H318.424V108H319.424V107ZM319.424 64.7344V63.7344H318.424V64.7344H319.424ZM326.651 64.7344H327.651V63.7344H326.651V64.7344ZM319.893 50.5547L319.151 49.8844L319.145 49.8911L319.139 49.8979L319.893 50.5547ZM319.893 56.4531L319.15 57.1221L319.156 57.1288L319.162 57.1354L319.893 56.4531ZM326.651 106H319.424V108H326.651V106ZM320.424 107V64.7344H318.424V107H320.424ZM319.424 65.7344H326.651V63.7344H319.424V65.7344ZM325.651 64.7344V107H327.651V64.7344H325.651ZM319.838 53.5234C319.838 52.5684 320.118 51.8189 320.647 51.2115L319.139 49.8979C318.262 50.905 317.838 52.1348 317.838 53.5234H319.838ZM320.635 51.225C321.123 50.685 321.885 50.3438 323.096 50.3438V48.3438C321.495 48.3438 320.122 48.8098 319.151 49.8844L320.635 51.225ZM323.096 50.3438C324.307 50.3438 325.069 50.685 325.557 51.225L327.041 49.8844C326.071 48.8098 324.697 48.3438 323.096 48.3438V50.3438ZM325.557 51.225C326.107 51.8336 326.393 52.5784 326.393 53.5234H328.393C328.393 52.1247 327.95 50.8904 327.041 49.8844L325.557 51.225ZM326.393 53.5234C326.393 54.4686 326.107 55.1933 325.568 55.7708L327.03 57.1354C327.95 56.1504 328.393 54.922 328.393 53.5234H326.393ZM325.568 55.7708C325.083 56.2908 324.317 56.625 323.096 56.625V58.625C324.688 58.625 326.057 58.1779 327.03 57.1354L325.568 55.7708ZM323.096 56.625C321.875 56.625 321.109 56.2908 320.624 55.7708L319.162 57.1354C320.135 58.1779 321.505 58.625 323.096 58.625V56.625ZM320.636 55.7842C320.118 55.2081 319.838 54.4789 319.838 53.5234H317.838C317.838 54.9118 318.262 56.1357 319.15 57.1221L320.636 55.7842ZM358.682 71.2188L358.518 72.2051L359.682 72.3992V71.2188H358.682ZM345.479 77L344.557 76.6133L344.479 76.7988V77H345.479ZM345.479 107V108H346.479V107H345.479ZM338.252 107H337.252V108H338.252V107ZM338.252 64.7344V63.7344H337.252V64.7344H338.252ZM345.284 64.7344L346.283 64.7104L346.26 63.7344H345.284V64.7344ZM345.401 69.6172L344.401 69.6412L344.481 72.9643L346.248 70.1488L345.401 69.6172ZM358.682 64.5H359.682V63.882L359.129 63.6056L358.682 64.5ZM358.847 70.2324C357.691 70.0398 356.451 69.9453 355.127 69.9453V71.9453C356.356 71.9453 357.486 72.0331 358.518 72.2051L358.847 70.2324ZM355.127 69.9453C352.616 69.9453 350.432 70.4808 348.629 71.612C346.821 72.7467 345.47 74.435 344.557 76.6133L346.401 77.3867C347.18 75.5285 348.284 74.1895 349.692 73.306C351.106 72.419 352.899 71.9453 355.127 71.9453V69.9453ZM344.479 77V107H346.479V77H344.479ZM345.479 106H338.252V108H345.479V106ZM339.252 107V64.7344H337.252V107H339.252ZM338.252 65.7344H345.284V63.7344H338.252V65.7344ZM344.284 64.7584L344.401 69.6412L346.401 69.5932L346.283 64.7104L344.284 64.7584ZM346.248 70.1488C348.44 66.6553 351.485 64.9531 355.479 64.9531V62.9531C350.776 62.9531 347.101 65.027 344.554 69.0856L346.248 70.1488ZM355.479 64.9531C356.827 64.9531 357.711 65.1326 358.235 65.3944L359.129 63.6056C358.195 63.1383 356.943 62.9531 355.479 62.9531V64.9531ZM357.682 64.5V71.2188H359.682V64.5H357.682ZM389.893 107L388.999 107.447L389.275 108H389.893V107ZM388.877 102.547L389.87 102.426L389.616 100.338L388.157 101.853L388.877 102.547ZM366.573 104.266L365.907 105.012L365.915 105.019L366.573 104.266ZM367.588 85.0469L368.176 85.8559L368.177 85.8551L367.588 85.0469ZM388.76 81.375V82.375H389.76V81.375H388.76ZM386.495 72.0391L385.787 72.7462L385.794 72.7523L386.495 72.0391ZM370.713 76.4531V77.4531H371.713V76.4531H370.713ZM363.448 76.4531H362.448V77.4531H363.448V76.4531ZM365.674 70.3594L364.879 69.7527L364.878 69.7543L365.674 70.3594ZM371.768 65.6719L371.362 64.7581L371.358 64.7596L371.768 65.6719ZM391.69 67.625L391.026 68.3732L391.03 68.3767L391.69 67.625ZM395.987 77.6641H396.987V77.6519L396.987 77.6397L395.987 77.6641ZM397.471 106.375H398.471V106.168L398.389 105.979L397.471 106.375ZM397.471 107V108H398.471V107H397.471ZM388.76 95.1641L389.66 95.6013L389.76 95.3942V95.1641H388.76ZM388.76 86.4922H389.76V85.4922H388.76V86.4922ZM390.787 106.553C390.455 105.888 390.13 104.557 389.87 102.426L387.885 102.668C388.146 104.807 388.498 106.445 388.999 107.447L390.787 106.553ZM388.157 101.853C384.978 105.156 381.224 106.781 376.846 106.781V108.781C381.791 108.781 386.058 106.917 389.598 103.24L388.157 101.853ZM376.846 106.781C372.878 106.781 369.701 105.671 367.231 103.513L365.915 105.019C368.81 107.548 372.481 108.781 376.846 108.781V106.781ZM367.238 103.519C364.799 101.343 363.588 98.6215 363.588 95.2812H361.588C361.588 99.1805 363.034 102.449 365.907 105.012L367.238 103.519ZM363.588 95.2812C363.588 91.1748 365.122 88.0751 368.176 85.8559L367.001 84.2379C363.388 86.8624 361.588 90.5856 361.588 95.2812H363.588ZM368.177 85.8551C371.303 83.5773 375.78 82.375 381.729 82.375V80.375C375.543 80.375 370.592 81.6206 366.999 84.2387L368.177 85.8551ZM381.729 82.375H388.76V80.375H381.729V82.375ZM389.76 81.375V78.0547H387.76V81.375H389.76ZM389.76 78.0547C389.76 75.316 388.934 73.0339 387.196 71.3258L385.794 72.7523C387.076 74.013 387.76 75.7413 387.76 78.0547H389.76ZM387.202 71.332C385.442 69.5723 382.921 68.7734 379.815 68.7734V70.7734C382.595 70.7734 384.526 71.485 385.788 72.7462L387.202 71.332ZM379.815 68.7734C377.062 68.7734 374.68 69.4716 372.732 70.9251L373.929 72.528C375.471 71.3774 377.411 70.7734 379.815 70.7734V68.7734ZM372.732 70.9251C370.786 72.3781 369.713 74.2301 369.713 76.4531H371.713C371.713 74.9782 372.386 73.6792 373.929 72.528L372.732 70.9251ZM370.713 75.4531H363.448V77.4531H370.713V75.4531ZM364.448 76.4531C364.448 74.5967 365.096 72.7731 366.47 70.9645L364.878 69.7543C363.284 71.8519 362.448 74.0908 362.448 76.4531H364.448ZM366.469 70.966C367.867 69.1349 369.758 67.6703 372.178 66.5841L371.358 64.7596C368.674 65.9651 366.503 67.6255 364.879 69.7527L366.469 70.966ZM372.174 66.5857C374.613 65.5016 377.299 64.9531 380.245 64.9531V62.9531C377.044 62.9531 374.079 63.5505 371.362 64.7581L372.174 66.5857ZM380.245 64.9531C384.95 64.9531 388.501 66.1335 391.026 68.3732L392.353 66.8768C389.358 64.2206 385.279 62.9531 380.245 62.9531V64.9531ZM391.03 68.3767C393.546 70.5837 394.889 73.647 394.987 77.6884L396.987 77.6397C396.877 73.1395 395.355 69.51 392.349 66.8733L391.03 68.3767ZM394.987 77.6641V97.1172H396.987V77.6641H394.987ZM394.987 97.1172C394.987 101.066 395.488 104.305 396.553 106.771L398.389 105.979C397.475 103.862 396.987 100.929 396.987 97.1172H394.987ZM396.471 106.375V107H398.471V106.375H396.471ZM397.471 106H389.893V108H397.471V106ZM377.901 102.492C380.348 102.492 382.668 101.857 384.846 100.601L383.846 98.8682C381.962 99.9556 379.985 100.492 377.901 100.492V102.492ZM384.846 100.601C387.028 99.3418 388.65 97.6779 389.66 95.6013L387.861 94.7269C387.047 96.4002 385.727 97.7832 383.846 98.8682L384.846 100.601ZM389.76 95.1641V86.4922H387.76V95.1641H389.76ZM388.76 85.4922H383.096V87.4922H388.76V85.4922ZM383.096 85.4922C378.604 85.4922 375.071 86.1437 372.63 87.5725C370.106 89.0497 368.815 91.3238 368.815 94.2656H370.815C370.815 92.0251 371.737 90.4125 373.64 89.2986C375.626 88.1363 378.734 87.4922 383.096 87.4922V85.4922ZM368.815 94.2656C368.815 96.7777 369.666 98.8471 371.435 100.342L372.726 98.8142C371.475 97.7571 370.815 96.2848 370.815 94.2656H368.815ZM371.435 100.342C373.16 101.799 375.344 102.492 377.901 102.492V100.492C375.718 100.492 374.022 99.9089 372.726 98.8142L371.435 100.342Z" fill="black"/>
<path d="M91.0462 30.36H107.846V93.36C107.846 103.92 102.886 109.2 92.9662 109.2H79.0462C69.1262 109.2 64.1662 103.92 64.1662 93.36V83.64H80.1262V95.28C80.1262 95.92 80.3262 96.48 80.7262 96.96C81.2062 97.44 81.7662 97.68 82.4062 97.68H88.7662C89.4062 97.68 89.9262 97.44 90.3262 96.96C90.8062 96.48 91.0462 95.92 91.0462 95.28V30.36ZM163.551 45V93.36C163.551 103.92 158.591 109.2 148.671 109.2H132.711C122.791 109.2 117.831 103.92 117.831 93.36V45C117.831 34.44 122.791 29.16 132.711 29.16H148.671C158.591 29.16 163.551 34.44 163.551 45ZM146.751 95.28V42.96C146.751 42.32 146.511 41.76 146.031 41.28C145.631 40.8 145.111 40.56 144.471 40.56H136.911C136.271 40.56 135.711 40.8 135.231 41.28C134.831 41.76 134.631 42.32 134.631 42.96V95.28C134.631 95.92 134.831 96.48 135.231 96.96C135.711 97.44 136.271 97.68 136.911 97.68H144.471C145.111 97.68 145.631 97.44 146.031 96.96C146.511 96.48 146.751 95.92 146.751 95.28ZM213.876 65.52C219.076 67.36 221.676 71.6 221.676 78.24V92.16C221.676 102.72 216.716 108 206.796 108H175.956V30.36H205.836C215.756 30.36 220.716 35.64 220.716 46.2V53.28C220.716 59.68 218.436 63.76 213.876 65.52ZM201.636 41.76H192.756V62.52H201.636C202.276 62.52 202.796 62.28 203.196 61.8C203.676 61.32 203.916 60.76 203.916 60.12V44.16C203.916 43.52 203.676 42.96 203.196 42.48C202.796 42 202.276 41.76 201.636 41.76ZM204.876 94.08V76.68C204.876 76.04 204.636 75.48 204.156 75C203.756 74.52 203.236 74.28 202.596 74.28H192.756V96.48H202.596C203.236 96.48 203.756 96.24 204.156 95.76C204.636 95.28 204.876 94.72 204.876 94.08Z" fill="white"/>
<path d="M91.0462 30.36V29.36H90.0462V30.36H91.0462ZM107.846 30.36H108.846V29.36H107.846V30.36ZM64.1662 83.64V82.64H63.1662V83.64H64.1662ZM80.1262 83.64H81.1262V82.64H80.1262V83.64ZM80.7262 96.96L79.958 97.6002L79.987 97.635L80.0191 97.6671L80.7262 96.96ZM90.3262 96.96L89.6191 96.2529L89.587 96.285L89.558 96.3198L90.3262 96.96ZM91.0462 31.36H107.846V29.36H91.0462V31.36ZM106.846 30.36V93.36H108.846V30.36H106.846ZM106.846 93.36C106.846 98.5009 105.638 102.17 103.397 104.555C101.168 106.928 97.7555 108.2 92.9662 108.2V110.2C98.0969 110.2 102.124 108.832 104.855 105.925C107.575 103.03 108.846 98.7791 108.846 93.36H106.846ZM92.9662 108.2H79.0462V110.2H92.9662V108.2ZM79.0462 108.2C74.2569 108.2 70.8443 106.928 68.615 104.555C66.3747 102.17 65.1662 98.5009 65.1662 93.36H63.1662C63.1662 98.7791 64.4377 103.03 67.1573 105.925C69.8881 108.832 73.9155 110.2 79.0462 110.2V108.2ZM65.1662 93.36V83.64H63.1662V93.36H65.1662ZM64.1662 84.64H80.1262V82.64H64.1662V84.64ZM79.1262 83.64V95.28H81.1262V83.64H79.1262ZM79.1262 95.28C79.1262 96.1477 79.4043 96.9358 79.958 97.6002L81.4944 96.3198C81.2481 96.0242 81.1262 95.6923 81.1262 95.28H79.1262ZM80.0191 97.6671C80.674 98.322 81.4836 98.68 82.4062 98.68V96.68C82.0487 96.68 81.7384 96.558 81.4333 96.2529L80.0191 97.6671ZM82.4062 98.68H88.7662V96.68H82.4062V98.68ZM88.7662 98.68C89.6946 98.68 90.4992 98.3145 91.0944 97.6002L89.558 96.3198C89.3532 96.5655 89.1177 96.68 88.7662 96.68V98.68ZM91.0333 97.6671C91.6882 97.0122 92.0462 96.2026 92.0462 95.28H90.0462C90.0462 95.6374 89.9242 95.9478 89.6191 96.2529L91.0333 97.6671ZM92.0462 95.28V30.36H90.0462V95.28H92.0462ZM146.031 41.28L145.262 41.9202L145.291 41.955L145.323 41.9871L146.031 41.28ZM135.231 41.28L134.523 40.5729L134.491 40.605L134.462 40.6398L135.231 41.28ZM135.231 96.96L134.462 97.6002L134.491 97.635L134.523 97.6671L135.231 96.96ZM146.031 96.96L145.323 96.2529L145.291 96.285L145.262 96.3198L146.031 96.96ZM162.551 45V93.36H164.551V45H162.551ZM162.551 93.36C162.551 98.5009 161.342 102.17 159.102 104.555C156.872 106.928 153.46 108.2 148.671 108.2V110.2C153.801 110.2 157.829 108.832 160.559 105.925C163.279 103.03 164.551 98.7791 164.551 93.36H162.551ZM148.671 108.2H132.711V110.2H148.671V108.2ZM132.711 108.2C127.921 108.2 124.509 106.928 122.279 104.555C120.039 102.17 118.831 98.5009 118.831 93.36H116.831C116.831 98.7791 118.102 103.03 120.822 105.925C123.552 108.832 127.58 110.2 132.711 110.2V108.2ZM118.831 93.36V45H116.831V93.36H118.831ZM118.831 45C118.831 39.8591 120.039 36.1895 122.279 33.8047C124.509 31.4316 127.921 30.16 132.711 30.16V28.16C127.58 28.16 123.552 29.5284 120.822 32.4353C118.102 35.3305 116.831 39.5809 116.831 45H118.831ZM132.711 30.16H148.671V28.16H132.711V30.16ZM148.671 30.16C153.46 30.16 156.872 31.4316 159.102 33.8047C161.342 36.1895 162.551 39.8591 162.551 45H164.551C164.551 39.5809 163.279 35.3305 160.559 32.4353C157.829 29.5284 153.801 28.16 148.671 28.16V30.16ZM147.751 95.28V42.96H145.751V95.28H147.751ZM147.751 42.96C147.751 42.0374 147.393 41.2278 146.738 40.5729L145.323 41.9871C145.629 42.2922 145.751 42.6026 145.751 42.96H147.751ZM146.799 40.6398C146.204 39.9255 145.399 39.56 144.471 39.56V41.56C144.822 41.56 145.058 41.6745 145.262 41.9202L146.799 40.6398ZM144.471 39.56H136.911V41.56H144.471V39.56ZM136.911 39.56C135.988 39.56 135.178 39.918 134.523 40.5729L135.938 41.9871C136.243 41.682 136.553 41.56 136.911 41.56V39.56ZM134.462 40.6398C133.909 41.3042 133.631 42.0923 133.631 42.96H135.631C135.631 42.5477 135.752 42.2158 135.999 41.9202L134.462 40.6398ZM133.631 42.96V95.28H135.631V42.96H133.631ZM133.631 95.28C133.631 96.1477 133.909 96.9358 134.462 97.6002L135.999 96.3198C135.752 96.0242 135.631 95.6923 135.631 95.28H133.631ZM134.523 97.6671C135.178 98.322 135.988 98.68 136.911 98.68V96.68C136.553 96.68 136.243 96.558 135.938 96.2529L134.523 97.6671ZM136.911 98.68H144.471V96.68H136.911V98.68ZM144.471 98.68C145.399 98.68 146.204 98.3145 146.799 97.6002L145.262 96.3198C145.058 96.5655 144.822 96.68 144.471 96.68V98.68ZM146.738 97.6671C147.393 97.0122 147.751 96.2026 147.751 95.28H145.751C145.751 95.6374 145.629 95.9478 145.323 96.2529L146.738 97.6671ZM213.876 65.52L213.515 64.5871L210.993 65.5607L213.542 66.4627L213.876 65.52ZM175.956 108H174.956V109H175.956V108ZM175.956 30.36V29.36H174.956V30.36H175.956ZM192.756 41.76V40.76H191.756V41.76H192.756ZM192.756 62.52H191.756V63.52H192.756V62.52ZM203.196 61.8L202.488 61.0929L202.456 61.125L202.427 61.1598L203.196 61.8ZM203.196 42.48L202.427 43.1202L202.456 43.155L202.488 43.1871L203.196 42.48ZM204.156 75L203.387 75.6402L203.416 75.675L203.448 75.7071L204.156 75ZM192.756 74.28V73.28H191.756V74.28H192.756ZM192.756 96.48H191.756V97.48H192.756V96.48ZM204.156 95.76L203.448 95.0529L203.416 95.085L203.387 95.1198L204.156 95.76ZM213.542 66.4627C215.951 67.3152 217.706 68.6995 218.873 70.6027C220.049 72.5211 220.676 75.0445 220.676 78.24H222.676C222.676 74.7955 222.002 71.8789 220.578 69.5572C219.145 67.2205 217 65.5648 214.209 64.5773L213.542 66.4627ZM220.676 78.24V92.16H222.676V78.24H220.676ZM220.676 92.16C220.676 97.3009 219.467 100.97 217.227 103.355C214.997 105.728 211.585 107 206.796 107V109C211.926 109 215.954 107.632 218.684 104.725C221.404 101.83 222.676 97.5791 222.676 92.16H220.676ZM206.796 107H175.956V109H206.796V107ZM176.956 108V30.36H174.956V108H176.956ZM175.956 31.36H205.836V29.36H175.956V31.36ZM205.836 31.36C210.625 31.36 214.037 32.6316 216.267 35.0047C218.507 37.3895 219.716 41.0591 219.716 46.2H221.716C221.716 40.7809 220.444 36.5305 217.724 33.6353C214.994 30.7284 210.966 29.36 205.836 29.36V31.36ZM219.716 46.2V53.28H221.716V46.2H219.716ZM219.716 53.28C219.716 56.3695 219.164 58.8063 218.133 60.6522C217.112 62.4786 215.589 63.7869 213.515 64.5871L214.236 66.4529C216.722 65.4931 218.619 63.8814 219.879 61.6278C221.127 59.3937 221.716 56.5905 221.716 53.28H219.716ZM201.636 40.76H192.756V42.76H201.636V40.76ZM191.756 41.76V62.52H193.756V41.76H191.756ZM192.756 63.52H201.636V61.52H192.756V63.52ZM201.636 63.52C202.564 63.52 203.369 63.1545 203.964 62.4402L202.427 61.1598C202.223 61.4055 201.987 61.52 201.636 61.52V63.52ZM203.903 62.5071C204.558 61.8522 204.916 61.0426 204.916 60.12H202.916C202.916 60.4774 202.794 60.7878 202.488 61.0929L203.903 62.5071ZM204.916 60.12V44.16H202.916V60.12H204.916ZM204.916 44.16C204.916 43.2374 204.558 42.4278 203.903 41.7729L202.488 43.1871C202.794 43.4922 202.916 43.8026 202.916 44.16H204.916ZM203.964 41.8398C203.369 41.1255 202.564 40.76 201.636 40.76V42.76C201.987 42.76 202.223 42.8745 202.427 43.1202L203.964 41.8398ZM205.876 94.08V76.68H203.876V94.08H205.876ZM205.876 76.68C205.876 75.7574 205.518 74.9478 204.863 74.2929L203.448 75.7071C203.754 76.0122 203.876 76.3225 203.876 76.68H205.876ZM204.924 74.3598C204.329 73.6455 203.524 73.28 202.596 73.28V75.28C202.947 75.28 203.183 75.3945 203.387 75.6402L204.924 74.3598ZM202.596 73.28H192.756V75.28H202.596V73.28ZM191.756 74.28V96.48H193.756V74.28H191.756ZM192.756 97.48H202.596V95.48H192.756V97.48ZM202.596 97.48C203.524 97.48 204.329 97.1145 204.924 96.4002L203.387 95.1198C203.183 95.3655 202.947 95.48 202.596 95.48V97.48ZM204.863 96.4671C205.518 95.8122 205.876 95.0026 205.876 94.08H203.876C203.876 94.4374 203.754 94.7478 203.448 95.0529L204.863 96.4671Z" fill="black"/>
</svg>
