<svg width="70" height="70" viewBox="0 0 70 70" fill="none" xmlns="http://www.w3.org/2000/svg">
<path d="M35 15.5C32.5895 15.5 30.2332 16.2148 28.229 17.554C26.2248 18.8931 24.6627 20.7966 23.7402 23.0235C22.8178 25.2505 22.5764 27.701 23.0467 30.0652C23.5169 32.4293 24.6777 34.6009 26.3821 36.3054C28.0866 38.0098 30.2582 39.1706 32.6223 39.6408C34.9865 40.1111 37.437 39.8697 39.664 38.9473C41.8909 38.0248 43.7944 36.4627 45.1335 34.4585C46.4727 32.4543 47.1875 30.098 47.1875 27.6875C47.1875 24.4552 45.9035 21.3552 43.6179 19.0696C41.3323 16.784 38.2323 15.5 35 15.5ZM35 35C33.5537 35 32.1399 34.5711 30.9374 33.7676C29.7349 32.9641 28.7976 31.8221 28.2441 30.4859C27.6907 29.1497 27.5459 27.6794 27.828 26.2609C28.1102 24.8424 28.8066 23.5395 29.8293 22.5168C30.852 21.4941 32.1549 20.7977 33.5734 20.5155C34.9919 20.2334 36.4622 20.3782 37.7984 20.9316C39.1346 21.4851 40.2766 22.4224 41.0801 23.6249C41.8836 24.8274 42.3125 26.2412 42.3125 27.6875C42.3106 29.6263 41.5395 31.4851 40.1686 32.8561C38.7976 34.227 36.9388 34.9981 35 35Z" fill="black"/>
<path d="M35 0.875C28.2507 0.875 21.653 2.8764 16.0412 6.6261C10.4294 10.3758 6.05547 15.7054 3.47263 21.9409C0.889786 28.1765 0.213997 35.0379 1.53072 41.6575C2.84744 48.2771 6.09753 54.3576 10.87 59.13C15.6425 63.9025 21.723 67.1526 28.3426 68.4693C34.9622 69.786 41.8236 69.1102 48.0591 66.5274C54.2946 63.9445 59.6242 59.5707 63.3739 53.9588C67.1236 48.347 69.125 41.7493 69.125 35C69.1147 25.9527 65.5161 17.2788 59.1186 10.8814C52.7212 4.48394 44.0474 0.885322 35 0.875V0.875ZM20.375 60.2939V56.9375C20.377 54.9987 21.148 53.1399 22.5189 51.7689C23.8899 50.398 25.7487 49.6269 27.6875 49.625H42.3125C44.2513 49.6269 46.1102 50.398 47.4811 51.7689C48.852 53.1399 49.6231 54.9987 49.625 56.9375V60.2939C45.1867 62.8855 40.1395 64.2512 35 64.2512C29.8605 64.2512 24.8133 62.8855 20.375 60.2939V60.2939ZM54.4805 56.7571C54.4319 53.5599 53.1293 50.5098 50.8533 48.2639C48.5773 46.0179 45.5101 44.756 42.3125 44.75H27.6875C24.49 44.756 21.4227 46.0179 19.1467 48.2639C16.8707 50.5098 15.5681 53.5599 15.5195 56.7571C11.0993 52.8102 7.98211 47.6138 6.5808 41.8559C5.17949 36.098 5.56013 30.0503 7.67232 24.5135C9.78451 18.9768 13.5286 14.2122 18.4089 10.8506C23.2891 7.48907 29.0753 5.68913 35.0012 5.68913C40.9272 5.68913 46.7134 7.48907 51.5936 10.8506C56.4739 14.2122 60.218 18.9768 62.3301 24.5135C64.4423 30.0503 64.823 36.098 63.4217 41.8559C62.0204 47.6138 58.9032 52.8102 54.483 56.7571H54.4805Z" fill="black"/>
</svg>
